<svg width="200" height="200" viewBox="0 0 200 200" fill="none" xmlns="http://www.w3.org/2000/svg">
  <g stroke="#1A1A1A" stroke-width="6" fill="none">
    <!-- Center circle -->
    <circle cx="100" cy="100" r="25"/>
    
    <!-- 8 petals arranged in a circle -->
    <!-- Top petal -->
    <path d="M100 25 C 120 40, 120 60, 100 75 C 80 60, 80 40, 100 25 Z"/>
    
    <!-- Top-right petal -->
    <path d="M152.5 47.5 C 157.5 70, 145 87.5, 125 87.5 C 125 67.5, 137.5 52.5, 152.5 47.5 Z"/>
    
    <!-- Right petal -->
    <path d="M175 100 C 160 120, 140 120, 125 100 C 140 80, 160 80, 175 100 Z"/>
    
    <!-- Bottom-right petal -->
    <path d="M152.5 152.5 C 137.5 157.5, 125 145, 125 125 C 145 125, 157.5 137.5, 152.5 152.5 Z"/>
    
    <!-- Bottom petal -->
    <path d="M100 175 C 80 160, 80 140, 100 125 C 120 140, 120 160, 100 175 Z"/>
    
    <!-- Bottom-left petal -->
    <path d="M47.5 152.5 C 42.5 137.5, 55 125, 75 125 C 75 145, 62.5 157.5, 47.5 152.5 Z"/>
    
    <!-- Left petal -->
    <path d="M25 100 C 40 80, 60 80, 75 100 C 60 120, 40 120, 25 100 Z"/>
    
    <!-- Top-left petal -->
    <path d="M47.5 47.5 C 62.5 42.5, 75 55, 75 75 C 55 75, 42.5 62.5, 47.5 47.5 Z"/>
    
    <!-- Center cross lines -->
    <line x1="100" y1="75" x2="100" y2="125"/>
    <line x1="75" y1="100" x2="125" y2="100"/>
    
    <!-- Diagonal lines -->
    <line x1="82" y1="82" x2="118" y2="118"/>
    <line x1="118" y1="82" x2="82" y2="118"/>
  </g>
</svg>