<svg width="24" height="24" viewBox="0 0 24 24" fill="none" xmlns="http://www.w3.org/2000/svg">
  <path d="M19.321 5.562a5.122 5.122 0 01-.443-.258 5.117 5.117 0 01-2.301-3.014 5.095 5.095 0 01-.177-.672h.002A5.131 5.131 0 0116.35 1H12.5v13.236c0 .185 0 .367-.01.547a2.952 2.952 0 01-.081.517 2.928 2.928 0 01-2.865 2.201 2.902 2.902 0 01-1.172-.257 2.925 2.925 0 01-1.715-3.168 2.928 2.928 0 012.871-2.359c.306 0 .598.053.872.142v-3.92l-.006-.002a6.974 6.974 0 00-.866-.053C5.908 8.034 3 10.935 3 14.545a6.542 6.542 0 002.148 4.861A6.523 6.523 0 009.544 21c.308 0 .61-.025.905-.066a6.536 6.536 0 003.946-2.371 6.518 6.518 0 001.455-4.101V7.849a9.035 9.035 0 003.032 1.406A9.095 9.095 0 0021 9.493V5.711a5.174 5.174 0 01-1.679-.149z" fill="#000000"/>
</svg>